<?xml version="1.0" encoding="UTF-8"?>
<svg width="60px" height="60px" viewBox="0 0 60 60" version="1.1" xmlns="http://www.w3.org/2000/svg" xmlns:xlink="http://www.w3.org/1999/xlink">
    <!-- Generator: Sketch 50.2 (55047) - http://www.bohemiancoding.com/sketch -->
    <title>grid-world</title>
    <desc>Created with Sketch.</desc>
    <defs>
        <linearGradient x1="50%" y1="0%" x2="50%" y2="100%" id="linearGradient-1">
            <stop stop-color="#1C81F2" offset="0%"></stop>
            <stop stop-color="#124176" offset="100%"></stop>
        </linearGradient>
    </defs>
    <g id="materials" stroke="none" stroke-width="1" fill="none" fill-rule="evenodd">
        <g id="Desktop" transform="translate(-380.000000, -400.000000)" fill="url(#linearGradient-1)" fill-rule="nonzero">
            <g id="grid-world" transform="translate(380.000000, 400.000000)">
                <path d="M59.928,28 C58.944,13.024 46.976,1.052 32,0.068 L32,0 L30,0 L28,0 L28,0.068 C13.024,1.052 1.052,13.024 0.068,28 L0,28 L0,30 L0,32 L0.068,32 C1.052,46.976 13.024,58.944 28,59.928 L28,60 L30,60 L32,60 L32,59.928 C46.976,58.944 58.944,46.976 59.928,32 L60,32 L60,30 L60,28 L59.928,28 Z M18.78,6.54 C16.848,9.108 15.244,12.328 14.076,16 L8.084,16 C10.692,11.932 14.396,8.64 18.78,6.54 Z M5.992,20 L13.024,20 C12.488,22.528 12.148,25.212 12.04,28 L4.076,28 C4.288,25.184 4.952,22.492 5.992,20 Z M4.076,32 L12.04,32 C12.148,34.788 12.488,37.472 13.024,40 L5.992,40 C4.952,37.508 4.288,34.816 4.076,32 Z M8.084,44 L14.072,44 C15.24,47.672 16.844,50.892 18.78,53.46 C14.396,51.36 10.692,48.072 8.084,44 Z M28,55.744 C23.888,54.644 20.348,50.228 18.2,44 L28,44 L28,55.744 Z M28,40 L17.076,40 C16.512,37.508 16.156,34.816 16.04,32 L28,32 L28,40 Z M28,28 L16.04,28 C16.156,25.184 16.512,22.492 17.076,20 L28,20 L28,28 Z M28,16 L18.2,16 C20.348,9.772 23.888,5.356 28,4.26 L28,16 Z M51.916,16 L45.932,16 C44.76,12.328 43.16,9.108 41.22,6.54 C45.6,8.64 49.308,11.932 51.916,16 Z M32,4.26 C36.108,5.356 39.652,9.772 41.8,16 L32,16 L32,4.26 Z M32,20 L42.92,20 C43.488,22.492 43.836,25.184 43.96,28 L32,28 L32,20 Z M32,32 L43.96,32 C43.844,34.816 43.488,37.508 42.92,40 L32,40 L32,32 Z M32,55.744 L32,44 L41.8,44 C39.652,50.228 36.108,54.644 32,55.744 Z M41.22,53.46 C43.152,50.888 44.76,47.672 45.932,44 L51.916,44 C49.308,48.072 45.6,51.36 41.22,53.46 Z M54.008,40 L46.976,40 C47.512,37.472 47.852,34.788 47.96,32 L55.92,32 C55.712,34.816 55.048,37.508 54.008,40 Z M47.96,28 C47.852,25.212 47.512,22.528 46.976,20 L54.008,20 C55.048,22.492 55.712,25.184 55.924,28 L47.96,28 Z" id="Shape"></path>
            </g>
        </g>
    </g>
</svg>