<svg viewBox="0 -16 512 512" xmlns="http://www.w3.org/2000/svg"><path d="m120 240c0 33.136719-26.863281 60-60 60s-60-26.863281-60-60 26.863281-60 60-60 60 26.863281 60 60zm0 0" fill="#4a696f"/><path d="m90 240c0 16.570312-13.429688 30-30 30s-30-13.429688-30-30 13.429688-30 30-30 30 13.429688 30 30zm0 0" fill="#ececf1"/><path d="m512 240c0 33.136719-26.863281 60-60 60s-60-26.863281-60-60 26.863281-60 60-60 60 26.863281 60 60zm0 0" fill="#3e5959"/><path d="m482 240c0 16.570312-13.429688 30-30 30s-30-13.429688-30-30 13.429688-30 30-30 30 13.429688 30 30zm0 0" fill="#e2e2e7"/><path d="m382.699219 37.199219-9.898438 28.199219-75.300781-26.398438-34.601562 129.898438-6.898438-1.796876-22.199219-5.703124 22.199219-85.796876 19.5-75.601562zm0 0" fill="#4a696f"/><path d="m262.898438 168.898438-6.898438-1.796876v-91.5l19.5-75.601562 107.199219 37.199219-9.898438 28.199219-75.300781-26.398438zm0 0" fill="#3e5959"/><path d="m256 150c-124.199219 0-226 74.097656-226 165s101.800781 165 226 165 226-74.097656 226-165-101.800781-165-226-165zm0 0" fill="#4a696f"/><path d="m482 315c0 90.902344-101.800781 165-226 165v-330c124.199219 0 226 74.097656 226 165zm0 0" fill="#3e5959"/><path d="m256 180c-107.402344 0-196 60.601562-196 135s88.597656 135 196 135 196-60.601562 196-135-88.597656-135-196-135zm0 0" fill="#ececf1"/><path d="m452 315c0 74.398438-88.597656 135-196 135v-270c107.402344 0 196 60.601562 196 135zm0 0" fill="#e2e2e7"/><path d="m353.300781 399.601562c-27.898437 13.5-62.5 20.398438-97.300781 20.398438s-69.402344-6.898438-97.300781-20.398438l12.601562-27.003906c24.300781 11.402344 55 17.101563 84.699219 17.101563s60.398438-5.699219 84.699219-17.101563zm0 0" fill="#4a696f"/><path d="m422 120c-33.089844 0-60-26.910156-60-60s26.910156-60 60-60 60 26.910156 60 60-26.910156 60-60 60zm0 0" fill="#3e5959"/><path d="m165 330c-24.8125 0-45-20.1875-45-45s20.1875-45 45-45 45 20.1875 45 45-20.1875 45-45 45zm0 0" fill="#ff7816"/><path d="m347 330c-24.8125 0-45-20.1875-45-45s20.1875-45 45-45 45 20.1875 45 45-20.1875 45-45 45zm0 0" fill="#ff4b00"/><path d="m422 30c-16.539062 0-30 13.460938-30 30s13.460938 30 30 30 30-13.460938 30-30-13.460938-30-30-30zm0 0" fill="#e2e2e7"/><path d="m353.300781 399.601562c-27.898437 13.5-62.5 20.398438-97.300781 20.398438v-30.300781c29.699219 0 60.398438-5.699219 84.699219-17.097657zm0 0" fill="#3e5959"/></svg>